<mxfile host="app.diagrams.net" modified="2020-08-07T02:37:14.030Z" agent="5.0 (Windows NT 10.0; Win64; x64) AppleWebKit/537.36 (KHTML, like Gecko) Chrome/79.0.3945.88 Safari/537.36" etag="QZVcwwTxVMB84xYO9N18" version="13.6.0" type="github">
  <diagram id="dTTs9b9BdKVSpU4l14FD" name="Page-1">
    <mxGraphModel dx="907" dy="646" grid="1" gridSize="10" guides="1" tooltips="1" connect="1" arrows="1" fold="1" page="1" pageScale="1" pageWidth="827" pageHeight="1169" math="0" shadow="0">
      <root>
        <mxCell id="0" />
        <mxCell id="1" parent="0" />
        <mxCell id="moEC0enAiMb97TvJeuvu-39" style="edgeStyle=none;rounded=0;orthogonalLoop=1;jettySize=auto;html=1;shadow=1;" edge="1" parent="1" source="moEC0enAiMb97TvJeuvu-2" target="moEC0enAiMb97TvJeuvu-36">
          <mxGeometry relative="1" as="geometry" />
        </mxCell>
        <mxCell id="moEC0enAiMb97TvJeuvu-67" style="edgeStyle=none;rounded=0;orthogonalLoop=1;jettySize=auto;html=1;exitX=0.75;exitY=1;exitDx=0;exitDy=0;entryX=0;entryY=0;entryDx=0;entryDy=0;shadow=1;" edge="1" parent="1" source="moEC0enAiMb97TvJeuvu-2" target="moEC0enAiMb97TvJeuvu-65">
          <mxGeometry relative="1" as="geometry" />
        </mxCell>
        <mxCell id="moEC0enAiMb97TvJeuvu-2" value="지원자" style="rounded=0;whiteSpace=wrap;html=1;fillColor=#f8cecc;strokeColor=#b85450;" vertex="1" parent="1">
          <mxGeometry x="70" y="100" width="120" height="60" as="geometry" />
        </mxCell>
        <mxCell id="moEC0enAiMb97TvJeuvu-35" style="edgeStyle=none;rounded=0;orthogonalLoop=1;jettySize=auto;html=1;entryX=0.825;entryY=0.338;entryDx=0;entryDy=0;entryPerimeter=0;" edge="1" parent="1" source="moEC0enAiMb97TvJeuvu-3" target="moEC0enAiMb97TvJeuvu-31">
          <mxGeometry relative="1" as="geometry" />
        </mxCell>
        <mxCell id="moEC0enAiMb97TvJeuvu-85" style="edgeStyle=none;rounded=0;orthogonalLoop=1;jettySize=auto;html=1;entryX=0.5;entryY=0;entryDx=0;entryDy=0;shadow=1;" edge="1" parent="1" source="moEC0enAiMb97TvJeuvu-3" target="moEC0enAiMb97TvJeuvu-84">
          <mxGeometry relative="1" as="geometry" />
        </mxCell>
        <mxCell id="moEC0enAiMb97TvJeuvu-3" value="캐스팅 디렉터" style="rounded=0;whiteSpace=wrap;html=1;fillColor=#f8cecc;strokeColor=#b85450;" vertex="1" parent="1">
          <mxGeometry x="600" y="100" width="120" height="60" as="geometry" />
        </mxCell>
        <mxCell id="moEC0enAiMb97TvJeuvu-8" value="id&lt;br&gt;" style="ellipse;whiteSpace=wrap;html=1;fillColor=#ffe6cc;strokeColor=#d79b00;" vertex="1" parent="1">
          <mxGeometry x="30" y="40" width="30" height="20" as="geometry" />
        </mxCell>
        <mxCell id="moEC0enAiMb97TvJeuvu-9" value="name" style="ellipse;whiteSpace=wrap;html=1;fillColor=#ffe6cc;strokeColor=#d79b00;" vertex="1" parent="1">
          <mxGeometry x="70" y="40" width="40" height="20" as="geometry" />
        </mxCell>
        <mxCell id="moEC0enAiMb97TvJeuvu-10" value="email" style="ellipse;whiteSpace=wrap;html=1;fillColor=#ffe6cc;strokeColor=#d79b00;" vertex="1" parent="1">
          <mxGeometry x="120" y="40" width="40" height="20" as="geometry" />
        </mxCell>
        <mxCell id="moEC0enAiMb97TvJeuvu-11" value="phoneNo" style="ellipse;whiteSpace=wrap;html=1;fillColor=#ffe6cc;strokeColor=#d79b00;" vertex="1" parent="1">
          <mxGeometry x="170" y="40" width="60" height="20" as="geometry" />
        </mxCell>
        <mxCell id="moEC0enAiMb97TvJeuvu-12" value="id&lt;br&gt;" style="ellipse;whiteSpace=wrap;html=1;fillColor=#ffe6cc;strokeColor=#d79b00;" vertex="1" parent="1">
          <mxGeometry x="570" y="40" width="30" height="20" as="geometry" />
        </mxCell>
        <mxCell id="moEC0enAiMb97TvJeuvu-13" value="name" style="ellipse;whiteSpace=wrap;html=1;fillColor=#ffe6cc;strokeColor=#d79b00;" vertex="1" parent="1">
          <mxGeometry x="610" y="40" width="40" height="20" as="geometry" />
        </mxCell>
        <mxCell id="moEC0enAiMb97TvJeuvu-14" value="email" style="ellipse;whiteSpace=wrap;html=1;fillColor=#ffe6cc;strokeColor=#d79b00;" vertex="1" parent="1">
          <mxGeometry x="660" y="40" width="40" height="20" as="geometry" />
        </mxCell>
        <mxCell id="moEC0enAiMb97TvJeuvu-15" value="phoneNo" style="ellipse;whiteSpace=wrap;html=1;fillColor=#ffe6cc;strokeColor=#d79b00;" vertex="1" parent="1">
          <mxGeometry x="710" y="40" width="60" height="20" as="geometry" />
        </mxCell>
        <mxCell id="moEC0enAiMb97TvJeuvu-26" value="작품" style="rounded=0;whiteSpace=wrap;html=1;shadow=1;fillColor=#fff2cc;strokeColor=#d6b656;" vertex="1" parent="1">
          <mxGeometry x="320" y="270" width="120" height="60" as="geometry" />
        </mxCell>
        <mxCell id="moEC0enAiMb97TvJeuvu-27" value="이름" style="ellipse;whiteSpace=wrap;html=1;shadow=1;fillColor=#ffe6cc;strokeColor=#d79b00;" vertex="1" parent="1">
          <mxGeometry x="320" y="220" width="40" height="30" as="geometry" />
        </mxCell>
        <mxCell id="moEC0enAiMb97TvJeuvu-29" value="개봉예정일" style="ellipse;whiteSpace=wrap;html=1;shadow=1;fillColor=#ffe6cc;strokeColor=#d79b00;" vertex="1" parent="1">
          <mxGeometry x="380" y="220" width="70" height="30" as="geometry" />
        </mxCell>
        <mxCell id="moEC0enAiMb97TvJeuvu-33" style="edgeStyle=none;rounded=0;orthogonalLoop=1;jettySize=auto;html=1;entryX=1;entryY=0.75;entryDx=0;entryDy=0;" edge="1" parent="1" source="moEC0enAiMb97TvJeuvu-31" target="moEC0enAiMb97TvJeuvu-26">
          <mxGeometry relative="1" as="geometry" />
        </mxCell>
        <mxCell id="moEC0enAiMb97TvJeuvu-38" style="edgeStyle=none;rounded=0;orthogonalLoop=1;jettySize=auto;html=1;entryX=1;entryY=0;entryDx=0;entryDy=0;shadow=1;" edge="1" parent="1" source="moEC0enAiMb97TvJeuvu-31" target="moEC0enAiMb97TvJeuvu-37">
          <mxGeometry relative="1" as="geometry" />
        </mxCell>
        <mxCell id="moEC0enAiMb97TvJeuvu-31" value="submit" style="rhombus;whiteSpace=wrap;html=1;fillColor=#dae8fc;strokeColor=#6c8ebf;" vertex="1" parent="1">
          <mxGeometry x="510" y="195" width="80" height="80" as="geometry" />
        </mxCell>
        <mxCell id="moEC0enAiMb97TvJeuvu-83" style="edgeStyle=none;rounded=0;orthogonalLoop=1;jettySize=auto;html=1;exitX=1;exitY=1;exitDx=0;exitDy=0;entryX=0.15;entryY=0.013;entryDx=0;entryDy=0;entryPerimeter=0;shadow=1;" edge="1" parent="1" source="moEC0enAiMb97TvJeuvu-36" target="moEC0enAiMb97TvJeuvu-71">
          <mxGeometry relative="1" as="geometry" />
        </mxCell>
        <mxCell id="moEC0enAiMb97TvJeuvu-36" value="apply" style="rhombus;whiteSpace=wrap;html=1;shadow=1;fillColor=#dae8fc;strokeColor=#6c8ebf;" vertex="1" parent="1">
          <mxGeometry x="80" y="250" width="80" height="80" as="geometry" />
        </mxCell>
        <mxCell id="moEC0enAiMb97TvJeuvu-37" value="구인" style="whiteSpace=wrap;html=1;aspect=fixed;shadow=1;fillColor=#fff2cc;strokeColor=#d6b656;" vertex="1" parent="1">
          <mxGeometry x="505" y="370" width="80" height="80" as="geometry" />
        </mxCell>
        <mxCell id="moEC0enAiMb97TvJeuvu-41" value="작품명" style="ellipse;whiteSpace=wrap;html=1;shadow=1;fillColor=#ffe6cc;strokeColor=#d79b00;" vertex="1" parent="1">
          <mxGeometry x="615" y="360" width="60" height="40" as="geometry" />
        </mxCell>
        <mxCell id="moEC0enAiMb97TvJeuvu-42" value="인원&lt;span style=&quot;color: rgba(0 , 0 , 0 , 0) ; font-family: monospace ; font-size: 0px&quot;&gt;%3CmxGraphModel%3E%3Croot%3E%3CmxCell%20id%3D%220%22%2F%3E%3CmxCell%20id%3D%221%22%20parent%3D%220%22%2F%3E%3CmxCell%20id%3D%222%22%20value%3D%22%EC%9E%91%ED%92%88%EB%AA%85%22%20style%3D%22ellipse%3BwhiteSpace%3Dwrap%3Bhtml%3D1%3Bshadow%3D1%3B%22%20vertex%3D%221%22%20parent%3D%221%22%3E%3CmxGeometry%20x%3D%22450%22%20y%3D%22380%22%20width%3D%2260%22%20height%3D%2240%22%20as%3D%22geometry%22%2F%3E%3C%2FmxCell%3E%3C%2Froot%3E%3C%2FmxGraphModel%3E&lt;/span&gt;&lt;span style=&quot;color: rgba(0 , 0 , 0 , 0) ; font-family: monospace ; font-size: 0px&quot;&gt;%3CmxGraphModel%3E%3Croot%3E%3CmxCell%20id%3D%220%22%2F%3E%3CmxCell%20id%3D%221%22%20parent%3D%220%22%2F%3E%3CmxCell%20id%3D%222%22%20value%3D%22%EC%9E%91%ED%92%88%EB%AA%85%22%20style%3D%22ellipse%3BwhiteSpace%3Dwrap%3Bhtml%3D1%3Bshadow%3D1%3B%22%20vertex%3D%221%22%20parent%3D%221%22%3E%3CmxGeometry%20x%3D%22450%22%20y%3D%22380%22%20width%3D%2260%22%20height%3D%2240%22%20as%3D%22geometry%22%2F%3E%3C%2FmxCell%3E%3C%2Froot%3E%3C%2FmxGraphModel%3E&lt;/span&gt;" style="ellipse;whiteSpace=wrap;html=1;shadow=1;fillColor=#ffe6cc;strokeColor=#d79b00;" vertex="1" parent="1">
          <mxGeometry x="615" y="410" width="60" height="40" as="geometry" />
        </mxCell>
        <mxCell id="moEC0enAiMb97TvJeuvu-43" value="구인 역" style="ellipse;whiteSpace=wrap;html=1;shadow=1;fillColor=#ffe6cc;strokeColor=#d79b00;" vertex="1" parent="1">
          <mxGeometry x="425" y="410" width="60" height="40" as="geometry" />
        </mxCell>
        <mxCell id="moEC0enAiMb97TvJeuvu-44" value="요구사항" style="ellipse;whiteSpace=wrap;html=1;shadow=1;fillColor=#ffe6cc;strokeColor=#d79b00;" vertex="1" parent="1">
          <mxGeometry x="425" y="360" width="60" height="40" as="geometry" />
        </mxCell>
        <mxCell id="moEC0enAiMb97TvJeuvu-50" value="" style="endArrow=none;html=1;shadow=1;entryX=0;entryY=0.5;entryDx=0;entryDy=0;exitX=1;exitY=0.25;exitDx=0;exitDy=0;" edge="1" parent="1" source="moEC0enAiMb97TvJeuvu-37" target="moEC0enAiMb97TvJeuvu-41">
          <mxGeometry width="50" height="50" relative="1" as="geometry">
            <mxPoint x="545" y="440" as="sourcePoint" />
            <mxPoint x="595" y="390" as="targetPoint" />
            <Array as="points" />
          </mxGeometry>
        </mxCell>
        <mxCell id="moEC0enAiMb97TvJeuvu-51" value="" style="endArrow=none;html=1;shadow=1;entryX=0;entryY=0.5;entryDx=0;entryDy=0;exitX=1;exitY=0.75;exitDx=0;exitDy=0;" edge="1" parent="1" source="moEC0enAiMb97TvJeuvu-37" target="moEC0enAiMb97TvJeuvu-42">
          <mxGeometry width="50" height="50" relative="1" as="geometry">
            <mxPoint x="595" y="400" as="sourcePoint" />
            <mxPoint x="625" y="390" as="targetPoint" />
            <Array as="points" />
          </mxGeometry>
        </mxCell>
        <mxCell id="moEC0enAiMb97TvJeuvu-52" value="" style="endArrow=none;html=1;shadow=1;entryX=1;entryY=0.5;entryDx=0;entryDy=0;exitX=0;exitY=0.25;exitDx=0;exitDy=0;" edge="1" parent="1" source="moEC0enAiMb97TvJeuvu-37" target="moEC0enAiMb97TvJeuvu-44">
          <mxGeometry width="50" height="50" relative="1" as="geometry">
            <mxPoint x="605" y="410" as="sourcePoint" />
            <mxPoint x="635" y="400" as="targetPoint" />
            <Array as="points" />
          </mxGeometry>
        </mxCell>
        <mxCell id="moEC0enAiMb97TvJeuvu-54" value="" style="endArrow=none;html=1;shadow=1;entryX=1;entryY=0.25;entryDx=0;entryDy=0;exitX=0;exitY=0.613;exitDx=0;exitDy=0;entryPerimeter=0;exitPerimeter=0;" edge="1" parent="1" source="moEC0enAiMb97TvJeuvu-37" target="moEC0enAiMb97TvJeuvu-43">
          <mxGeometry width="50" height="50" relative="1" as="geometry">
            <mxPoint x="515" y="400" as="sourcePoint" />
            <mxPoint x="495" y="390" as="targetPoint" />
            <Array as="points" />
          </mxGeometry>
        </mxCell>
        <mxCell id="moEC0enAiMb97TvJeuvu-55" value="" style="endArrow=none;html=1;shadow=1;entryX=0.5;entryY=1;entryDx=0;entryDy=0;exitX=0.108;exitY=0;exitDx=0;exitDy=0;exitPerimeter=0;" edge="1" parent="1" source="moEC0enAiMb97TvJeuvu-2" target="moEC0enAiMb97TvJeuvu-8">
          <mxGeometry width="50" height="50" relative="1" as="geometry">
            <mxPoint x="380" y="250" as="sourcePoint" />
            <mxPoint x="430" y="200" as="targetPoint" />
          </mxGeometry>
        </mxCell>
        <mxCell id="moEC0enAiMb97TvJeuvu-56" value="" style="endArrow=none;html=1;shadow=1;entryX=0.5;entryY=1;entryDx=0;entryDy=0;" edge="1" parent="1" target="moEC0enAiMb97TvJeuvu-9">
          <mxGeometry width="50" height="50" relative="1" as="geometry">
            <mxPoint x="90" y="100" as="sourcePoint" />
            <mxPoint x="55" y="70" as="targetPoint" />
          </mxGeometry>
        </mxCell>
        <mxCell id="moEC0enAiMb97TvJeuvu-57" value="" style="endArrow=none;html=1;shadow=1;entryX=0;entryY=1;entryDx=0;entryDy=0;exitX=0.425;exitY=0.017;exitDx=0;exitDy=0;exitPerimeter=0;" edge="1" parent="1" source="moEC0enAiMb97TvJeuvu-2" target="moEC0enAiMb97TvJeuvu-10">
          <mxGeometry width="50" height="50" relative="1" as="geometry">
            <mxPoint x="100" y="110" as="sourcePoint" />
            <mxPoint x="100" y="70" as="targetPoint" />
          </mxGeometry>
        </mxCell>
        <mxCell id="moEC0enAiMb97TvJeuvu-58" value="" style="endArrow=none;html=1;shadow=1;entryX=0;entryY=1;entryDx=0;entryDy=0;exitX=0.65;exitY=0.017;exitDx=0;exitDy=0;exitPerimeter=0;" edge="1" parent="1" source="moEC0enAiMb97TvJeuvu-2" target="moEC0enAiMb97TvJeuvu-11">
          <mxGeometry width="50" height="50" relative="1" as="geometry">
            <mxPoint x="131" y="111.01999999999998" as="sourcePoint" />
            <mxPoint x="135.85786437626894" y="67.07106781186553" as="targetPoint" />
          </mxGeometry>
        </mxCell>
        <mxCell id="moEC0enAiMb97TvJeuvu-59" value="" style="endArrow=none;html=1;shadow=1;entryX=0.5;entryY=1;entryDx=0;entryDy=0;" edge="1" parent="1" source="moEC0enAiMb97TvJeuvu-3" target="moEC0enAiMb97TvJeuvu-12">
          <mxGeometry width="50" height="50" relative="1" as="geometry">
            <mxPoint x="380" y="250" as="sourcePoint" />
            <mxPoint x="430" y="200" as="targetPoint" />
          </mxGeometry>
        </mxCell>
        <mxCell id="moEC0enAiMb97TvJeuvu-60" value="" style="endArrow=none;html=1;shadow=1;entryX=0.5;entryY=1;entryDx=0;entryDy=0;" edge="1" parent="1" target="moEC0enAiMb97TvJeuvu-13">
          <mxGeometry width="50" height="50" relative="1" as="geometry">
            <mxPoint x="638" y="100" as="sourcePoint" />
            <mxPoint x="595" y="70" as="targetPoint" />
          </mxGeometry>
        </mxCell>
        <mxCell id="moEC0enAiMb97TvJeuvu-61" value="" style="endArrow=none;html=1;shadow=1;entryX=0;entryY=1;entryDx=0;entryDy=0;exitX=0.5;exitY=0;exitDx=0;exitDy=0;" edge="1" parent="1" source="moEC0enAiMb97TvJeuvu-3" target="moEC0enAiMb97TvJeuvu-14">
          <mxGeometry width="50" height="50" relative="1" as="geometry">
            <mxPoint x="647.8571428571429" y="120" as="sourcePoint" />
            <mxPoint x="640" y="70" as="targetPoint" />
          </mxGeometry>
        </mxCell>
        <mxCell id="moEC0enAiMb97TvJeuvu-62" value="" style="endArrow=none;html=1;shadow=1;entryX=0.017;entryY=0.85;entryDx=0;entryDy=0;exitX=0.667;exitY=-0.017;exitDx=0;exitDy=0;entryPerimeter=0;exitPerimeter=0;" edge="1" parent="1" source="moEC0enAiMb97TvJeuvu-3" target="moEC0enAiMb97TvJeuvu-15">
          <mxGeometry width="50" height="50" relative="1" as="geometry">
            <mxPoint x="670" y="110" as="sourcePoint" />
            <mxPoint x="675.8578643762689" y="67.07106781186553" as="targetPoint" />
          </mxGeometry>
        </mxCell>
        <mxCell id="moEC0enAiMb97TvJeuvu-63" value="" style="endArrow=none;html=1;shadow=1;entryX=0.286;entryY=0.933;entryDx=0;entryDy=0;entryPerimeter=0;exitX=0.5;exitY=0;exitDx=0;exitDy=0;" edge="1" parent="1" source="moEC0enAiMb97TvJeuvu-26" target="moEC0enAiMb97TvJeuvu-29">
          <mxGeometry width="50" height="50" relative="1" as="geometry">
            <mxPoint x="380" y="250" as="sourcePoint" />
            <mxPoint x="430" y="200" as="targetPoint" />
          </mxGeometry>
        </mxCell>
        <mxCell id="moEC0enAiMb97TvJeuvu-64" value="" style="endArrow=none;html=1;shadow=1;entryX=1;entryY=1;entryDx=0;entryDy=0;" edge="1" parent="1" source="moEC0enAiMb97TvJeuvu-26" target="moEC0enAiMb97TvJeuvu-27">
          <mxGeometry width="50" height="50" relative="1" as="geometry">
            <mxPoint x="390" y="280" as="sourcePoint" />
            <mxPoint x="410.02" y="257.99" as="targetPoint" />
          </mxGeometry>
        </mxCell>
        <mxCell id="moEC0enAiMb97TvJeuvu-68" style="edgeStyle=none;rounded=0;orthogonalLoop=1;jettySize=auto;html=1;exitX=1;exitY=1;exitDx=0;exitDy=0;entryX=0;entryY=0.5;entryDx=0;entryDy=0;shadow=1;" edge="1" parent="1" source="moEC0enAiMb97TvJeuvu-65" target="moEC0enAiMb97TvJeuvu-26">
          <mxGeometry relative="1" as="geometry" />
        </mxCell>
        <mxCell id="moEC0enAiMb97TvJeuvu-69" style="edgeStyle=none;rounded=0;orthogonalLoop=1;jettySize=auto;html=1;shadow=1;" edge="1" parent="1" source="moEC0enAiMb97TvJeuvu-65" target="moEC0enAiMb97TvJeuvu-37">
          <mxGeometry relative="1" as="geometry">
            <Array as="points">
              <mxPoint x="310" y="388" />
            </Array>
          </mxGeometry>
        </mxCell>
        <mxCell id="moEC0enAiMb97TvJeuvu-65" value="look" style="rhombus;whiteSpace=wrap;html=1;shadow=1;fillColor=#dae8fc;strokeColor=#6c8ebf;" vertex="1" parent="1">
          <mxGeometry x="180" y="190" width="80" height="80" as="geometry" />
        </mxCell>
        <mxCell id="moEC0enAiMb97TvJeuvu-71" value="구인지원" style="whiteSpace=wrap;html=1;aspect=fixed;shadow=1;fillColor=#fff2cc;strokeColor=#d6b656;" vertex="1" parent="1">
          <mxGeometry x="180" y="370" width="80" height="80" as="geometry" />
        </mxCell>
        <mxCell id="moEC0enAiMb97TvJeuvu-72" value="작품명" style="ellipse;whiteSpace=wrap;html=1;shadow=1;fillColor=#ffe6cc;strokeColor=#d79b00;" vertex="1" parent="1">
          <mxGeometry x="65" y="390" width="45" height="40" as="geometry" />
        </mxCell>
        <mxCell id="moEC0enAiMb97TvJeuvu-73" value="지원 역" style="ellipse;whiteSpace=wrap;html=1;shadow=1;fillColor=#ffe6cc;strokeColor=#d79b00;" vertex="1" parent="1">
          <mxGeometry x="87.5" y="470" width="45" height="40" as="geometry" />
        </mxCell>
        <mxCell id="moEC0enAiMb97TvJeuvu-74" value="동영상" style="ellipse;whiteSpace=wrap;html=1;shadow=1;fillColor=#ffe6cc;strokeColor=#d79b00;" vertex="1" parent="1">
          <mxGeometry x="87.5" y="350" width="45" height="40" as="geometry" />
        </mxCell>
        <mxCell id="moEC0enAiMb97TvJeuvu-75" value="하고싶은 말" style="ellipse;whiteSpace=wrap;html=1;shadow=1;fillColor=#ffe6cc;strokeColor=#d79b00;" vertex="1" parent="1">
          <mxGeometry x="30" y="430" width="70" height="40" as="geometry" />
        </mxCell>
        <mxCell id="moEC0enAiMb97TvJeuvu-78" value="" style="endArrow=none;html=1;shadow=1;" edge="1" parent="1">
          <mxGeometry width="50" height="50" relative="1" as="geometry">
            <mxPoint x="130" y="480" as="sourcePoint" />
            <mxPoint x="180" y="430" as="targetPoint" />
          </mxGeometry>
        </mxCell>
        <mxCell id="moEC0enAiMb97TvJeuvu-79" value="" style="endArrow=none;html=1;shadow=1;exitX=1;exitY=0.5;exitDx=0;exitDy=0;entryX=-0.012;entryY=0.663;entryDx=0;entryDy=0;entryPerimeter=0;" edge="1" parent="1" source="moEC0enAiMb97TvJeuvu-75" target="moEC0enAiMb97TvJeuvu-71">
          <mxGeometry width="50" height="50" relative="1" as="geometry">
            <mxPoint x="140" y="490" as="sourcePoint" />
            <mxPoint x="190" y="440" as="targetPoint" />
          </mxGeometry>
        </mxCell>
        <mxCell id="moEC0enAiMb97TvJeuvu-80" value="" style="endArrow=none;html=1;shadow=1;exitX=1.022;exitY=0.75;exitDx=0;exitDy=0;entryX=-0.012;entryY=0.6;entryDx=0;entryDy=0;entryPerimeter=0;exitPerimeter=0;" edge="1" parent="1" source="moEC0enAiMb97TvJeuvu-72" target="moEC0enAiMb97TvJeuvu-71">
          <mxGeometry width="50" height="50" relative="1" as="geometry">
            <mxPoint x="110" y="460" as="sourcePoint" />
            <mxPoint x="189.03999999999996" y="433.03999999999996" as="targetPoint" />
          </mxGeometry>
        </mxCell>
        <mxCell id="moEC0enAiMb97TvJeuvu-81" value="" style="endArrow=none;html=1;shadow=1;exitX=1;exitY=1;exitDx=0;exitDy=0;entryX=0;entryY=0.5;entryDx=0;entryDy=0;" edge="1" parent="1" source="moEC0enAiMb97TvJeuvu-74" target="moEC0enAiMb97TvJeuvu-71">
          <mxGeometry width="50" height="50" relative="1" as="geometry">
            <mxPoint x="120.99000000000001" y="430" as="sourcePoint" />
            <mxPoint x="189.03999999999996" y="428" as="targetPoint" />
          </mxGeometry>
        </mxCell>
        <mxCell id="moEC0enAiMb97TvJeuvu-86" style="edgeStyle=none;rounded=0;orthogonalLoop=1;jettySize=auto;html=1;exitX=0;exitY=1;exitDx=0;exitDy=0;entryX=1;entryY=0.25;entryDx=0;entryDy=0;shadow=1;" edge="1" parent="1" source="moEC0enAiMb97TvJeuvu-84" target="moEC0enAiMb97TvJeuvu-71">
          <mxGeometry relative="1" as="geometry" />
        </mxCell>
        <mxCell id="moEC0enAiMb97TvJeuvu-84" value="look&amp;nbsp;&lt;br&gt;&amp;amp;&lt;br&gt;choose&lt;br&gt;or&lt;br&gt;comment" style="rhombus;whiteSpace=wrap;html=1;shadow=1;fillColor=#dae8fc;strokeColor=#6c8ebf;" vertex="1" parent="1">
          <mxGeometry x="580" y="240" width="140" height="100" as="geometry" />
        </mxCell>
      </root>
    </mxGraphModel>
  </diagram>
</mxfile>
